{"title":"Arash feat Helena - One Day 720p x264 MP3 E-Subs [GWC].mkv","uid":9750507,"size":50885096,"categoryP":"video","categoryS":"music_videos","magnet":"?xt=urn:btih:a2b22265de854aaea1416f26f56a06ed59c08ea2&amp;dn=Arash+feat+Helena+-+One+Day+720p+x264+MP3+E-Subs+%5BGWC%5D.mkv&amp;tr=udp%3A%2F%2Ftracker.openbittorrent.com%3A80&amp;tr=udp%3A%2F%2Fopen.demonii.com%3A1337&amp;tr=udp%3A%2F%2Ftracker.coppersurfer.tk%3A6969&amp;tr=udp%3A%2F%2Fexodus.desync.com%3A6969","seeders":1,"leechers":0,"uploader":"canc232","files":1,"time":1394656100,"description":"Arash feat Helena - One Day 720p x264 MP3 E-Subs [GWC] \n\n\nCOVER : &lt;a href=&quot;\nhttp://i.imgur.com/MhRGuLk.jpg&quot; rel=&quot;nofollow&quot; target=&quot;_NEW&quot;&gt;\nhttp://i.imgur.com/MhRGuLk.jpg&lt;/a&gt;\n\n\nTHUMBNAIL IMAGE : &lt;a href=&quot;\nhttp://img822.imageshack.us/img822/460/bx9v.jpg&quot; rel=&quot;nofollow&quot; target=&quot;_NEW&quot;&gt;\nhttp://img822.imageshack.us/img822/460/bx9v.jpg&lt;/a&gt;\n\n\nMEDIA INFO :\nGeneral \nFormat : Matroska \nFormat version : Version 4 / Version 2 \nFile size : 48.5 MiB \nDuration : 3mn 51s \nOverall bit rate : 1 757 Kbps \nWriting application : mkvmerge v6.8.0 ('Theme for Great Cities')\n\nVideo \nFormat : AVC \nFormat profile : &lt;a class=&quot;__cf_email__&quot; href=&quot;/cdn-cgi/l/email-protection&quot; data-cfemail=&quot;0e436f67604e423d203f&quot;&gt;[email&amp;#160;protected]&lt;/a&gt;&lt;script cf-hash='f9e31' type=&quot;text/javascript&quot;&gt;\n/* &lt;![CDATA[ */!function(){try{var t=&quot;currentScript&quot;in document?document.currentScript:function(){for(var t=document.getElementsByTagName(&quot;script&quot;),e=t.length;e--;)if(t[e].getAttribute(&quot;cf-hash&quot;))return t[e]}();if(t&amp;&amp;t.previousSibling){var e,r,n,i,c=t.previousSibling,a=c.getAttribute(&quot;data-cfemail&quot;);if(a){for(e=&quot;&quot;,r=parseInt(a.substr(0,2),16),n=2;a.length-n;n+=2)i=parseInt(a.substr(n,2),16)^r,e+=String.fromCharCode(i);e=document.createTextNode(e),c.parentNode.replaceChild(e,c)}}}catch(u){}}();/* ]]&gt; */&lt;/script&gt; \nFormat settings, CABAC : Yes \nDuration : 3mn 51s \nBit rate : 1 482 Kbps \nWidth : 1 280 pixels \nHeight : 720 pixels \nDisplay aspect ratio : 16:9 \nFrame rate mode : Constant \nFrame rate : 25.000 fps \nStream size : 40.9 MiB (84%) \nTitle : Arash feat Helena - One Day 720p x264 MP3 E-Subs [GWC] \nLanguage : English \n\nAudio \nFormat : MPEG Audio \nFormat version : Version 1 \nFormat profile : Layer 3 \nMode : Joint stereo \nDuration : 3mn 46s \nBit rate : 240 Kbps \nChannel(s) : 2 channels \nSampling rate : 44.1 KHz \nStream size : 6.49 MiB (13%) \nLanguage : Persian \n\nText \nCodec ID/Info : Advanced Sub Station Alpha \nCompression mode : Lossless \nTitle : Rainbow :)) English Subtitle by [GWC] \nLanguage : English ","torrent":{"xt":"urn:btih:a2b22265de854aaea1416f26f56a06ed59c08ea2","amp;dn":"Arash+feat+Helena+-+One+Day+720p+x264+MP3+E-Subs+%5BGWC%5D.mkv","amp;tr":["udp%3A%2F%2Ftracker.openbittorrent.com%3A80","udp%3A%2F%2Fopen.demonii.com%3A1337","udp%3A%2F%2Ftracker.coppersurfer.tk%3A6969","udp%3A%2F%2Fexodus.desync.com%3A6969"],"infoHash":"a2b22265de854aaea1416f26f56a06ed59c08ea2","infoHashBuffer":{"type":"Buffer","data":[162,178,34,101,222,133,74,174,161,65,111,38,245,106,6,237,89,192,142,162]},"announce":[],"urlList":[]}}